<?xml version="1.0" encoding="utf-8"?>
<!-- Generator: Adobe Illustrator 16.0.0, SVG Export Plug-In . SVG Version: 6.00 Build 0)  -->
<!DOCTYPE svg PUBLIC "-//W3C//DTD SVG 1.1//EN" "http://www.w3.org/Graphics/SVG/1.1/DTD/svg11.dtd">
<svg version="1.1" id="Layer_1" xmlns="http://www.w3.org/2000/svg" xmlns:xlink="http://www.w3.org/1999/xlink" x="0px" y="0px"
	 width="450.632px" height="649.527px" viewBox="0 0 450.632 649.527" enable-background="new 0 0 450.632 649.527"
	 xml:space="preserve">
<path fill="#B4AA97" d="M336.902,418.555c-6.553,2.223-13.129,4.379-19.65,6.687c-7.979,2.824-16.273,3.41-23.441-0.974
	c-8.777-5.368-18.117-7.75-28.039-8.826c-2.059-0.223-1.788-1.682-1.842-2.947c-0.388-8.986-0.713-17.976-1.098-26.963
	c-0.133-3.095-0.379-6.186-0.574-9.277c0.043-1.65,0.121-3.303,0.123-4.954c0.033-29.474-0.583-58.938-1.383-88.396
	c-0.992-36.551-0.461-72.995,5.731-109.154c2.327-13.586,5.314-26.979,11.706-39.365c3.571-6.918,8.312-13.073,12.531-19.57
	c2.416-3.719,4.681-7.594,4.342-12.329c0.416-3.077,1.178-6.119,2.548-8.852c2.122-4.235,4.474-8.503,10.247-8.441
	c2.757,4.196,7.219,5.209,11.669,6.215c1.612,0.365,3.175,0.662,4.549,1.77c1.614,1.303,3.384,2.187,5.707,1.65
	c1.552-0.358,3.124,0.449,4.126,1.713c1.35,1.705,2.895,1.782,4.657,0.968c2.285-1.056,4.016-0.543,5.161,1.716
	c1.494,2.944,3.2,5.756,4.512,8.834c1.439,3.375,2.35,8.227,7.332,9.873c4.129,1.366,7.34,4.593,10.195,7.919
	c1.312,1.527,2.695,2.206,4.796,2.081c4.602-0.272,9.072,0.511,13.247,2.604c-0.207,3.191-2.707,5.015-4.511,7.153
	c-2.957,3.505-13.2,4.075-16.627,0.997c-2.796-2.51-6.133-2.8-9.55-2.84c-1.523-0.018-2.704,1.21-2.567,2.603
	c0.464,4.682,0.526,9.521,5.311,12.55c2.966,1.878,6.122,4.359,7.005,7.65c1.686,6.284,5.334,9.735,11.515,10.928
	c0.591,0.114,1.119,0.525,1.689,0.764c10.194,4.281,17.945,1.983,24.164-7.158c0.626-0.919,0.983-2.103,2.307-2.33
	c2.18,2.529,2.785,5.724,3.604,8.795c2.562,9.6,4.287,19.377,6.007,29.153c0.243,1.377,0.141,2.664-0.285,3.964
	c-1.06,3.242-2.098,6.491-3.175,9.729c-0.647,1.951-1.203,3.793-0.774,5.998c0.642,3.296-0.992,6.019-3.248,8.334
	c-8.796,9.024-22.819,11.88-34.409,6.805c-4.979-2.181-6.726-6.75-7.472-11.741c-0.272-1.827-0.194-3.71-0.228-5.568
	c-0.069-4.012-1.507-7.133-5.359-8.914c-4.263-1.972-8.461-4.082-13.434-6.496c1.558,5.213,2.602,9.734,4.271,14.01
	c1.778,4.551,0.752,9.212,1.277,13.799c2.491,21.789,6.73,43.309,9.877,64.994c2.447,16.867,4.016,33.854,7.144,50.633
	c2.521,13.517,4.607,27.115,7.242,40.607c0.902,4.621,0.779,8.333-3.626,10.959c-0.492,0.295-0.777,0.938-1.159,1.42
	c-4.872,3.733-9.794,7.413-13.589,12.331c-1.523,0.866-3.047,1.732-4.569,2.599C346.224,414.358,341.563,416.456,336.902,418.555z"
	/>
<path fill="#B4AA97" d="M140.528,196.416c-1.155-2.164-0.519-4.212,0.473-6.194c0.983-1.966,2.383-3.693,4.091-5.008
	c4.717-3.629,8.257-8.325,12.052-12.799c3.469-4.09,6.987-8.031,11.795-10.767c8.072-4.591,12.932-12.629,19.451-18.901
	c0.849-0.816,0.73-1.881,0.853-2.887c0.617-5.03,2.184-9.668,5.68-13.47c1.606-1.746,3.258-3.312,5.9-3.596
	c1.977-0.213,3.369-1.309,1.736-3.597c-0.669-0.937-0.65-1.908,0.067-2.865c0.412-0.55,1.146-1.171,0.464-1.885
	c-1.198-1.254-0.206-2.05,0.483-2.899c1.429-1.764,2.898-3.494,4.35-5.239c1.719,0.745,2.302,2.462,2.577,3.942
	c0.724,3.898,3.389,6.404,5.852,9.088c0.758,0.825,1.638,1.531,2.084,2.6c-1.548,1.856-1.862,4.114-1.993,6.398
	c-0.191,3.309-0.069,6.614,0.223,9.921c0.683,7.741,2.72,15.306,3.433,23c2.899,31.312,5.467,62.654,8.044,93.996
	c1.093,13.291,0.909,26.649,2.249,39.947c2.315,22.998,2.767,46.052,0.499,69.101c-0.573,5.829-1.281,11.645-1.928,17.466
	c-1.136,7.348-2.672,14.638-3.085,22.086c-1.25,1.877-1.199,4.127-1.725,6.205c-0.356,1.404-0.651,2.111-2.433,1.626
	c-7.96-2.166-16.082-3.617-24.2-5.053c-2.06-0.364-3.91-1.267-5.866-1.896c-2.841-3.131-5.381-6.465-7.372-10.226
	c-0.773-1.459-2.01-2.73-3.594-3.287c-2.36-0.828-4.011-2.445-5.559-4.262c-0.817-1.899-0.609-3.706,0.054-5.668
	c1.771-5.242,4.061-10.313,5.275-15.742c1.379-2.352,2.129-4.931,2.734-7.562c2.909-6.517,4.8-13.402,7.3-20.067
	c0.649-1.731,1.413-3.438,1.475-5.353c0.603-18.525,3.377-36.833,5.609-55.19c1.983-16.31,4.2-32.592,6.436-48.869
	c0.374-2.717-0.173-2.89-2.613-2.038c-5.166,1.803-10.464,3.221-15.694,4.842c-1.141,0.354-2.194,0.526-3.262-0.155
	c-4.087-2.605-7.909-5.408-8.271-10.851c-0.052-0.778-0.347-1.396-1.106-1.715c-0.646-0.685-1.293-1.369-1.939-2.054
	c-2.983-3.001-5.833-6.149-9.428-8.471c-1.363-1.568-2.584-3.325-4.871-3.667c-2.709-4.214-7.134-6.157-11.253-8.507
	C143.754,194.855,142.081,194.98,140.528,196.416z"/>
<path fill="#8C9473" d="M218.438,121.938c-0.447-1.067-1.326-1.773-2.084-2.599c-2.463-2.684-5.128-5.188-5.852-9.089
	c-0.274-1.479-0.857-3.196-2.577-3.941c-0.495-2.993-2.7-4.119-5.178-3.492c-6,1.516-11.457-0.258-16.983-2.016
	c-7.189-2.286-14.196-5.146-21.577-6.83c-4.074-0.93-8.17-1.273-12.305-0.49c-0.933,0.177-1.859,0.511-2.481-0.531
	c-0.575-0.961-0.124-1.807,0.446-2.574c2.019-2.718,4.702-4.605,7.685-6.126c4.764-2.429,9.871-4.088,15.123-4.316
	c7.096-0.308,13.194-3.074,19.283-6.168c2.949-1.499,5.819-3.162,8.822-4.538c1.835-0.84,1.759-2.377,1.95-3.872
	c1.001-7.875,2.42-15.854,7.465-22.085c11.79-14.561,30.636-25.617,51.592-14.757c1.464,0.759,3.024,1.341,4.563,1.943
	c9.832,3.842,16.99,10.461,20.914,20.336c1.056,2.656,2.873,3.323,5.525,3.371c7.221,0.131,14.168-0.768,20.912-3.608
	c5.707-2.404,11.586-4.414,17.594-6.034c5.185-1.398,9.103,0.377,12.349,4.283c1.427,1.719,0.827,3.61-1.286,3.337
	c-8.895-1.148-11.045,5.985-13.77,11.557c-3.894,7.961-9.113,14.416-16.535,19.174c-1.283,0.824-3.004,0.9-3.929,2.317
	c-5.774-0.062-8.124,4.205-10.247,8.441c-1.37,2.732-2.132,5.775-2.548,8.852c-2.63,3.178-5.214,6.397-7.899,9.528
	c-6.727,7.84-13.65,15.49-21.999,21.681c-3.587,2.66-7.351,5.209-11.968,5.336c-2.446,0.066-3.553,0.67-3.666,3.17
	c-0.041,0.928-0.036,2.41-1.101,2.684c-1.112,0.285-1.668-1.073-2.135-1.893c-2.089-3.666-5.182-5.747-9.133-7.258
	c-6.55-2.505-11.934-6.883-16.585-12.13C220.165,122.861,219.742,121.762,218.438,121.938z"/>
<path fill="#362720" d="M218.438,121.938c1.304-0.176,1.727,0.924,2.384,1.665c4.651,5.247,10.036,9.625,16.585,12.13
	c3.951,1.512,7.045,3.592,9.133,7.258c0.467,0.819,1.022,2.178,2.135,1.893c1.064-0.272,1.061-1.756,1.101-2.684
	c0.113-2.5,1.22-3.104,3.666-3.17c4.616-0.127,8.381-2.676,11.968-5.335c8.348-6.191,15.271-13.842,21.998-21.681
	c2.687-3.131,5.27-6.35,7.9-9.529c0.338,4.736-1.926,8.61-4.342,12.329c-4.219,6.497-8.961,12.652-12.531,19.57
	c-6.393,12.386-9.379,25.779-11.707,39.365c-6.192,36.159-6.724,72.604-5.73,109.154c0.799,29.458,1.416,58.924,1.382,88.396
	c-0.002,1.651-0.08,3.303-0.123,4.954c-1.113,0.122-2.228,0.246-3.341,0.37c-2.029,0.252-4.074,0.411-6.084,0.771
	c-7.961,1.424-15.912,2.91-23.867,4.373c0.646-5.821,1.354-11.637,1.928-17.466c2.268-23.049,1.816-46.104-0.499-69.101
	c-1.34-13.299-1.156-26.656-2.249-39.947c-2.577-31.342-5.146-62.685-8.044-93.996c-0.712-7.694-2.75-15.259-3.433-23
	c-0.292-3.307-0.414-6.611-0.223-9.921C216.577,126.052,216.89,123.794,218.438,121.938z"/>
<path fill="#8C9473" d="M402.79,160.852c-1.324,0.228-1.681,1.411-2.307,2.331c-6.219,9.142-13.969,11.438-24.164,7.158
	c-0.57-0.24-1.099-0.651-1.689-0.765c-6.181-1.192-9.829-4.643-11.515-10.928c-0.883-3.291-4.039-5.772-7.005-7.65
	c-4.785-3.028-4.847-7.867-5.311-12.55c-0.137-1.393,1.044-2.62,2.567-2.603c3.417,0.041,6.754,0.33,9.55,2.841
	c3.429,3.077,13.67,2.507,16.627-0.998c1.804-2.138,4.304-3.962,4.511-7.153c2.096-2.127,3.27-4.934,5.463-7.046
	c2.086-2.009,4.512-3.256,7.093-4.263c2.743-1.071,4.74,0.689,4.994,3.712c0.327,3.931-0.928,7.226-3.695,9.795
	c-2.882,2.678-1.905,5.71-1.123,8.608c0.784,2.908,3.256,4.223,6.133,4.432c1.839,0.134,3.731-0.017,5.559-0.305
	c2.636-0.414,4.641,0.576,6.378,2.382c2.276,2.367,3.523,5.361,4.572,8.356c0.881,2.52-0.279,4.963-2.46,6.159
	c-1.83,1.003-4.17-0.31-5.559-1.383C408.353,158.622,405.666,159.812,402.79,160.852z"/>
<path fill="#20140A" d="M171.127,216.539c0.646,0.686,1.293,1.369,1.939,2.054c-0.231,10.025-0.867,20.106,1.156,30.002
	c2.563,12.54,3.465,25.181,3.128,37.925c-0.13,4.912,0.498,9.71,1.538,14.451c0.559,2.551,0.803,5.077,0.916,7.664
	c0.609,14.042,1.224,28.083,1.981,42.117c0.131,2.429,0.118,4.988,1.409,7.237c-0.605,2.63-1.356,5.21-2.735,7.562
	c-2.359-9.942-4.754-19.877-7.065-29.83c-1.705-7.339-3.231-14.696-4.24-22.19c-0.767-5.697-2.744-11.22-3.941-16.872
	c-2.54-12-3.436-23.949-0.836-36.206c2.337-11.021,2.694-22.328,1.099-33.58c-0.332-2.344-0.84-4.682-2.029-6.792
	C165.92,218.713,168.362,217.272,171.127,216.539z"/>
<path fill="#8C9473" d="M228.964,381.767c7.955-1.463,15.906-2.949,23.868-4.373c2.009-0.359,4.055-0.52,6.083-0.771
	c0.785,5.536-0.361,6.554-5.062,9.544c-6.356,4.042-14.486,4.196-20.091,9.742c-1.662,1.646-3.789,2.743-4.744,5.124
	c-0.529,1.323-1.68,2.339-3.139,2.82C226.293,396.405,227.83,389.114,228.964,381.767z"/>
<path fill="#8C9473" d="M140.528,196.416c1.553-1.436,3.227-1.561,5.048-0.521c4.119,2.351,8.543,4.294,11.252,8.507
	c-0.229,0.329-0.457,0.66-0.686,0.989c-3.63,1.277-0.721,2.254,0.153,3.324c0.11,0.187,0.221,0.373,0.331,0.56
	c0.319,1.505,0.695,3,0.939,4.516c0.172,1.074,0.987,2.367-0.779,3.02c-0.282,0.104-0.537,0.655-0.562,1.017
	c-0.157,2.219-0.618,2.662-2.465,1.502c-5.841-3.667-10.638-8.347-13.01-15.025c-0.517-1.456-0.222-3.076,0.074-4.594
	C141.049,198.559,141.076,197.474,140.528,196.416z"/>
<path fill="#8C9473" d="M355.455,409.663c3.795-4.919,8.716-8.599,13.588-12.331c2.485,2.84,4.962,5.67,7.713,8.283
	c1.93,1.834,1.496,6.743-0.303,8.625c-1.616,1.69-6.567,2.217-8.338,0.324C364.597,410.807,360.046,410.316,355.455,409.663z"/>
<path fill="#8C9473" d="M175.131,386.96c1.547,1.817,3.199,3.435,5.559,4.263c1.584,0.557,2.821,1.828,3.594,3.287
	c1.991,3.761,4.531,7.094,7.372,10.226c-1.531,0.181-3.059,0.402-4.595,0.534c-3.701,0.317-5.912-1.213-6.694-4.849
	c-0.327-1.521-0.842-2.328-2.534-2.479c-3.691-0.329-5.167-3.521-6.197-6.214C170.845,389.662,172.865,387.784,175.131,386.96z"/>
<path fill="#8C9473" d="M171.127,216.539c-2.767,0.733-5.207,2.174-7.68,3.542c-0.39,0.125-0.796,0.217-1.169,0.383
	c-1.325,0.59-2.816,1.471-4.03,0.289c-1.116-1.087,0.267-2.282,0.607-3.389c0.561-1.826,0.5-3.662,0.438-5.519
	c0.223-1.628,1.193-2.78,2.405-3.777C165.294,210.391,168.144,213.539,171.127,216.539z"/>
<path fill="#8C9473" d="M336.902,418.555c4.661-2.099,9.322-4.196,13.982-6.294c-0.494,5.27-2.926,8.563-7.174,9.722
	C340.347,422.899,338.308,421.872,336.902,418.555z"/>
<path fill="#20140A" d="M161.699,208.069c-1.212,0.997-2.182,2.149-2.405,3.776c-0.889-0.855-1.778-1.712-2.667-2.57
	c-0.111-0.188-0.221-0.374-0.332-0.562c-0.052-1.108-0.102-2.216-0.152-3.323c0.229-0.329,0.457-0.66,0.686-0.989
	C159.116,204.743,160.336,206.5,161.699,208.069z"/>
<path fill="#425706" d="M156.143,205.391c0.05,1.106,0.102,2.215,0.152,3.323C155.422,207.645,152.513,206.668,156.143,205.391z"/>
<g>
	<path fill="#231F20" d="M401.975,188.095c0,0,0.148,0.566,0.437,1.665c0.145,0.549,0.323,1.23,0.536,2.041
		c0.222,0.808,0.462,1.748,0.669,2.828c0.225,1.077,0.477,2.28,0.753,3.604c0.212,1.336,0.444,2.794,0.694,4.37
		c0.267,1.575,0.378,3.29,0.589,5.109c0.197,1.822,0.222,3.771,0.35,5.825c0.06,4.111,0.045,8.684-0.52,13.623
		c-0.521,4.937-1.368,10.268-2.876,15.821c-1.478,5.557-3.5,11.362-6.214,17.231c-2.709,5.869-6.161,11.77-10.35,17.507
		c-4.192,5.732-9.15,11.287-14.871,16.401c-5.712,5.123-12.248,9.72-19.411,13.638c-7.179,3.905-14.97,7.123-23.322,9.302
		c-1.028,0.255-2.043,0.529-3.091,0.771c-1.073,0.215-2.149,0.43-3.228,0.646c-1.08,0.244-2.16,0.339-3.245,0.514
		c-1.083,0.167-2.172,0.313-3.271,0.396c-4.379,0.473-8.843,0.547-13.319,0.277c-17.916-0.971-36.121-8.092-50.388-20.502
		c-7.136-6.184-13.247-13.646-18.018-21.928c-2.355-4.159-4.357-8.526-5.999-13.027c-0.854-2.262-1.504-4.502-2.2-6.891
		c-0.275-1.144-0.573-2.258-0.83-3.428c-0.225-1.2-0.491-2.406-0.675-3.602c-1.516-9.537-0.942-19.391,1.612-28.656
		c2.525-9.279,7.086-17.931,13.112-25.26c6.017-7.345,13.547-13.336,21.865-17.495l3.151-1.479c1.071-0.438,2.143-0.875,3.211-1.311
		c1.089-0.382,2.176-0.763,3.261-1.144c1.133-0.333,2.263-0.666,3.391-0.998c1.09-0.234,2.179-0.468,3.266-0.702
		c1.086-0.233,2.149-0.497,3.336-0.588c1.155-0.13,2.31-0.259,3.461-0.389c0.287-0.029,0.575-0.069,0.861-0.088l0.854-0.01
		l1.705-0.019c4.547-0.175,9.024,0.551,13.38,1.44c4.288,1.18,8.511,2.557,12.329,4.681c3.916,1.93,7.39,4.529,10.678,7.212
		c0.769,0.735,1.534,1.467,2.298,2.197c0.75,0.743,1.555,1.428,2.205,2.256c1.341,1.614,2.799,3.116,3.913,4.868
		c4.822,6.714,7.931,14.38,9.312,21.935c0.137,0.967,0.226,1.96,0.337,2.932l0.157,1.46c0.038,0.484,0.018,0.963,0.028,1.442
		c0.007,0.958,0.013,1.912,0.02,2.862c-0.05,0.947-0.162,1.887-0.241,2.824l-0.13,1.4c-0.047,0.465-0.164,0.919-0.243,1.378
		c-0.176,0.914-0.351,1.823-0.525,2.728c-0.211,0.896-0.505,1.767-0.753,2.643c-0.259,0.874-0.491,1.752-0.861,2.577
		c-0.338,0.836-0.673,1.668-1.007,2.496c-0.327,0.83-0.795,1.59-1.184,2.381c-0.429,0.77-0.76,1.59-1.265,2.304
		c-0.474,0.732-0.944,1.459-1.412,2.183c-0.44,0.742-0.996,1.397-1.522,2.066c-0.528,0.667-1.055,1.329-1.576,1.988
		c-0.584,0.605-1.163,1.207-1.739,1.805c-0.586,0.587-1.127,1.213-1.775,1.718c-4.887,4.374-10.468,7.375-16.008,9.092
		c-5.513,1.777-11.139,2.154-16.083,1.322c-4.966-0.803-9.294-2.605-12.809-4.79c-0.854-0.588-1.744-1.073-2.498-1.702
		c-0.761-0.617-1.518-1.194-2.217-1.793c-0.658-0.644-1.297-1.268-1.913-1.871c-0.62-0.599-1.109-1.281-1.64-1.881
		c-0.258-0.307-0.511-0.608-0.759-0.903c-0.233-0.306-0.437-0.627-0.649-0.93c-0.418-0.611-0.819-1.196-1.203-1.756
		c-0.677-1.175-1.266-2.259-1.776-3.233c-0.43-1.014-0.81-1.909-1.138-2.682c-0.316-0.776-0.476-1.469-0.659-2.006
		c-0.336-1.084-0.509-1.644-0.509-1.644s0.191,0.554,0.562,1.626c0.2,0.53,0.381,1.214,0.722,1.978
		c0.351,0.758,0.757,1.636,1.217,2.63c0.539,0.952,1.158,2.008,1.864,3.148c0.397,0.542,0.812,1.107,1.246,1.698
		c0.22,0.292,0.429,0.602,0.67,0.896c0.254,0.284,0.514,0.573,0.777,0.867c2.05,2.4,4.809,4.839,8.307,6.89
		c3.486,2.052,7.742,3.701,12.565,4.362c4.821,0.686,10.15,0.202,15.462-1.645c5.31-1.787,10.595-4.803,15.162-9.091
		c4.614-4.236,8.314-9.888,10.673-16.301c0.343-0.786,0.547-1.623,0.78-2.455c0.222-0.834,0.49-1.662,0.678-2.512
		c0.152-0.858,0.305-1.721,0.458-2.588c0.068-0.435,0.175-0.865,0.212-1.305l0.102-1.326c0.061-0.885,0.156-1.773,0.19-2.667
		c-0.021-0.895-0.04-1.795-0.061-2.698c-0.017-0.45-0.002-0.907-0.045-1.354l-0.164-1.333c-0.116-0.892-0.201-1.779-0.338-2.685
		c-1.452-7.318-4.497-14.454-9.156-20.766c-1.072-1.645-2.481-3.04-3.766-4.547c-0.621-0.775-1.396-1.408-2.114-2.099
		c-0.729-0.679-1.462-1.36-2.195-2.043c-3.146-2.48-6.445-4.887-10.158-6.643c-3.619-1.94-7.6-3.176-11.62-4.27
		c-4.091-0.793-8.284-1.453-12.536-1.25l-1.594,0.028l-0.798,0.014c-0.263,0.019-0.52,0.06-0.78,0.088
		c-1.04,0.123-2.082,0.246-3.125,0.369c-1.029,0.069-2.122,0.345-3.207,0.587c-1.085,0.242-2.172,0.484-3.261,0.727
		c-1.008,0.308-2.019,0.617-3.031,0.927c-1.024,0.368-2.051,0.736-3.079,1.106l-3.027,1.263l-2.968,1.421
		c-7.822,4.001-14.89,9.688-20.56,16.62c-5.667,6.93-9.951,15.103-12.308,23.853c-2.386,8.738-2.896,18.01-1.456,26.986
		c0.17,1.119,0.41,2.203,0.608,3.307c0.241,1.118,0.545,2.271,0.815,3.404c0.615,2.107,1.259,4.372,2.061,6.491
		c1.555,4.296,3.451,8.463,5.687,12.435c4.53,7.905,10.339,15.038,17.136,20.958c6.82,5.881,14.504,10.678,22.692,14.017
		c8.181,3.342,16.799,5.361,25.381,5.891c4.288,0.291,8.568,0.253,12.772-0.17c1.055-0.07,2.101-0.203,3.142-0.356
		c1.035-0.159,2.095-0.247,3.104-0.459c1.019-0.188,2.035-0.375,3.05-0.561c1.025-0.221,2.062-0.484,3.089-0.723
		c8.049-1.973,15.714-5,22.729-8.69c7.019-3.706,13.45-8.087,19.093-13.003c5.652-4.907,10.577-10.262,14.762-15.812
		c8.371-11.123,13.774-22.923,16.937-33.795c1.616-5.438,2.579-10.681,3.211-15.552c0.676-4.874,0.798-9.402,0.837-13.484
		c-0.115-8.168-0.961-14.578-1.822-18.874c-0.172-1.084-0.382-2.032-0.577-2.846c-0.187-0.816-0.344-1.504-0.47-2.057
		C402.106,188.666,401.975,188.095,401.975,188.095z"/>
</g>
<g>
	<polygon fill="#FFFFFF" points="210.535,226.289 204.679,351.29 267,241.113 	"/>
	<polygon fill="#FFFFFF" points="336.527,231.843 293.352,270.957 204.679,351.29 274.917,242.252 	"/>
	<polygon fill="#FFFFFF" points="267,241.113 266.917,254.118 204.679,351.29 	"/>
</g>
</svg>
