<?xml version="1.0" encoding="utf-8"?>
<!-- Generator: Adobe Illustrator 16.0.0, SVG Export Plug-In . SVG Version: 6.00 Build 0)  -->
<!DOCTYPE svg PUBLIC "-//W3C//DTD SVG 1.1//EN" "http://www.w3.org/Graphics/SVG/1.1/DTD/svg11.dtd">
<svg version="1.1" id="Layer_1" xmlns="http://www.w3.org/2000/svg" xmlns:xlink="http://www.w3.org/1999/xlink" x="0px" y="0px"
	 width="450.632px" height="649.527px" viewBox="0 0 450.632 649.527" enable-background="new 0 0 450.632 649.527"
	 xml:space="preserve">
<path fill-rule="evenodd" clip-rule="evenodd" d="M153.623,149.178c3.499,26.247,7.006,52.492,10.504,78.738
	c1.604,12.035-1.755,18.282-13.903,20.363c-21.599,3.699-43.372,6.679-65.19,8.688c-11.964,1.102-16.712-4.253-18.303-16.182
	c-7.017-52.659-14.045-105.316-21.072-157.975c-1.295-9.709,2.005-16.615,11.783-18.285c22.902-3.912,45.983-7.054,69.111-9.228
	c10.513-0.988,15.146,4.565,16.561,15.137C146.624,96.683,150.124,122.931,153.623,149.178z M70.786,240.777
	c29.975-4.001,59.574-7.953,89.279-11.918c-7.038-52.724-14.032-105.118-21.041-157.618c-29.924,3.995-59.412,7.931-89.279,11.918
	C56.773,135.808,63.766,188.194,70.786,240.777z"/>
<path fill-rule="evenodd" clip-rule="evenodd" fill="#8C9473" d="M128.287,218.095c-1.838,1.139-1.658,3.122-2.037,4.872
	c-3.771,17.403-13.958,25.508-31.762,25.269c-0.998-0.014-2.034-0.309-2.984-0.124c-9.95,1.949-17.479-1.001-23.787-9.369
	c-3.303-4.382-9.515-6.183-15.076-7.196c-8.972-1.637-11.984-8.825-15.5-15.536c-1.046-1.998-0.023-4.543,2.262-5.435
	c5.127-2.002,10.284-3.582,15.974-1.521c6.975,2.526,21.925-4.504,24.225-11.521c1.403-4.281,4.036-8.513,2.419-13.402
	c1.846-4.441,1.904-9.341,3.906-13.817c1.904-4.26,4.773-7.584,8.019-10.644c3.451-3.254,7.495-1.832,9.697,2.53
	c2.861,5.671,2.974,11.349,0.393,16.855c-2.689,5.735,0.6,9.675,3.516,13.531c2.925,3.868,7.411,4.341,11.831,2.917
	c2.826-0.91,5.562-2.276,8.118-3.809c3.687-2.21,7.276-1.941,10.96-0.291c4.826,2.16,8.496,5.878,11.868,9.719
	c2.836,3.229,2.577,7.578,0.042,10.68c-2.126,2.604-6.412,2.054-9.132,1.291C135.249,211.41,131.955,214.81,128.287,218.095z"/>
<path fill="#B4AA97" d="M184.349,324.763c0,0-15.813-41.632-29.999-52.317s-20.268-20.006-14.774-24.586s-84.114-8.056-84.114-8.056
	s-8.893,21.963,0,42.48s79.39,101.512,80.89,128.511"/>
<path fill-rule="evenodd" clip-rule="evenodd" fill="#8C9473" d="M197.773,332.687c-0.719-1.719-2.136-2.857-3.356-4.186
	c-3.967-4.322-8.259-8.357-9.424-14.636c-0.442-2.383-1.381-5.148-4.15-6.348c-0.798-4.82-4.348-6.633-8.34-5.623
	c-9.662,2.441-18.45-0.416-27.35-3.248c-11.578-3.682-22.862-8.287-34.749-11c-6.561-1.496-13.158-2.049-19.817-0.787
	c-1.502,0.285-2.994,0.822-3.996-0.855c-0.925-1.549-0.198-2.91,0.719-4.145c3.251-4.377,7.572-7.416,12.377-9.867
	c7.671-3.912,15.896-6.584,24.354-6.951c11.428-0.496,21.249-4.951,31.054-9.934c4.749-2.412,9.372-5.092,14.208-7.307
	c2.955-1.354,2.833-3.828,3.14-6.236c1.613-12.682,3.897-25.533,12.022-35.568c18.987-23.449,49.337-41.254,83.086-23.764
	c2.358,1.221,4.87,2.16,7.35,3.129c15.833,6.188,27.361,16.848,33.681,32.75c1.7,4.277,4.628,5.35,8.899,5.428
	c11.628,0.213,22.816-1.236,33.678-5.811c9.192-3.871,18.658-7.107,28.333-9.717c8.35-2.25,14.66,0.607,19.887,6.898
	c2.3,2.77,1.332,5.814-2.069,5.375c-14.327-1.848-17.789,9.639-22.177,18.611c-6.27,12.822-14.676,23.217-26.628,30.881
	c-2.069,1.326-4.839,1.449-6.328,3.732c-9.299-0.102-13.084,6.771-16.503,13.594c-2.207,4.4-3.433,9.301-4.103,14.256
	c-4.235,5.119-8.396,10.303-12.722,15.344c-10.832,12.625-21.984,24.947-35.428,34.916c-5.776,4.283-11.838,8.389-19.273,8.592
	c-3.94,0.109-5.723,1.08-5.904,5.105c-0.067,1.494-0.059,3.883-1.773,4.322c-1.792,0.459-2.686-1.727-3.438-3.047
	c-3.364-5.904-8.345-9.256-14.708-11.689c-10.548-4.033-19.219-11.084-26.71-19.535
	C200.554,334.173,199.873,332.404,197.773,332.687z"/>
<path fill="#B4AA97" d="M307.763,861.632c-10.553,3.58-21.144,7.053-31.646,10.77c-12.85,4.547-26.208,5.49-37.752-1.57
	c-14.135-8.645-29.177-12.48-45.156-14.213c-3.315-0.357-2.879-2.709-2.967-4.746c-0.623-14.473-131.146-28.949-131.766-43.422
	c-0.214-4.986-0.612-9.963-0.926-14.943c0.069-2.656,0.195-5.316,0.198-7.977c0.055-47.467-0.938-94.92-2.226-142.359
	c-1.598-58.863,29.257-137.556,39.23-195.789c3.748-21.879,8.559-43.449,18.853-63.396c5.75-11.142,13.387-21.054,20.181-31.519
	c3.89-5.988,7.537-12.229,6.992-19.854c0.669-4.955,21.896-9.855,24.103-14.256c3.418-6.821,87.205,6.306,96.502,6.406
	c4.44,6.758,11.627,8.389,18.793,10.009c2.596,0.587,5.113,1.065,7.326,2.851c2.6,2.098,5.448,3.521,9.19,2.657
	c2.5-0.577,5.032,0.724,6.646,2.76c2.174,2.746,4.661,2.869,7.5,1.56c3.68-1.7,6.467-0.875,8.312,2.763
	c2.405,4.742,5.153,9.271,7.266,14.228c2.317,5.436,3.783,13.248,11.808,15.9c6.649,2.199,1.56,28.916-3.944,28.852
	c-2.452-0.029-4.354,1.947-4.134,4.19c0.746,7.54,0.847,15.333,8.552,20.211c4.776,3.024,9.86,7.021,11.282,12.32
	c2.714,10.122,8.589,15.679,18.543,17.599c0.951,0.184,1.802,0.846,2.721,1.23c16.418,6.895,28.9,3.193,38.916-11.527
	c1.008-1.48,1.584-3.387,3.715-3.754c3.51,4.074,4.484,9.219,5.805,14.165c4.127,15.46,6.904,31.205,9.674,46.95
	c0.391,2.218,0.227,4.291-0.459,6.384c-1.707,5.222-3.379,10.454-5.113,15.667c-1.043,3.142-1.938,6.108-1.248,9.659
	c1.033,5.308-1.598,9.693-5.23,13.422c-14.166,14.534-36.75,19.132-55.414,10.959c-8.02-3.512-10.832-10.871-12.033-18.909
	c-0.439-2.942-0.312-5.975-0.366-8.968c-0.112-6.46-2.427-11.486-8.632-14.354c-6.864-3.176-13.625-6.576-21.635-10.463
	c2.51,8.395,4.19,15.676,6.881,22.562c2.863,7.329,1.211,14.836,2.057,22.222c4.012,35.092,10.839,69.748,15.906,104.671
	c3.941,27.164,6.467,54.521,11.505,81.541c4.06,21.77,7.419,43.668,11.663,65.398c1.453,7.441,1.255,13.42-5.84,17.648
	c-0.793,0.475-1.252,1.512-1.867,2.287c-7.846,6.012-15.771,11.938-21.885,19.857c-2.453,1.396-4.905,2.791-7.358,4.186
	C322.775,854.875,315.269,858.253,307.763,861.632z"/>
</svg>
