<?xml version="1.0" encoding="utf-8"?>
<!-- Generator: Adobe Illustrator 16.0.0, SVG Export Plug-In . SVG Version: 6.00 Build 0)  -->
<!DOCTYPE svg PUBLIC "-//W3C//DTD SVG 1.1//EN" "http://www.w3.org/Graphics/SVG/1.1/DTD/svg11.dtd">
<svg version="1.1" id="Layer_1" xmlns="http://www.w3.org/2000/svg" xmlns:xlink="http://www.w3.org/1999/xlink" x="0px" y="0px"
	 width="450.632px" height="649.527px" viewBox="0 0 450.632 649.527" enable-background="new 0 0 450.632 649.527"
	 xml:space="preserve">
<path fill-rule="evenodd" clip-rule="evenodd" fill="#B4AA97" d="M317.252,635.187c-10.553,3.58-21.144,7.052-31.647,10.769
	c-12.85,4.548-26.208,5.491-37.752-1.569c-14.134-8.645-29.177-12.481-45.156-14.213c-3.315-0.359-2.879-2.709-2.967-4.747
	c-0.623-14.473-1.146-28.949-1.766-43.422c-0.214-4.985-0.612-9.963-0.926-14.942c0.069-2.658,0.195-5.318,0.198-7.978
	c0.055-47.466-0.938-94.919-2.226-142.359c-1.598-58.864-0.743-117.556,9.23-175.789c3.748-21.88,8.559-43.449,18.853-63.396
	c5.75-11.141,13.387-21.054,20.181-31.518c3.89-5.989,7.537-12.229,6.992-19.854c0.669-4.955,1.896-9.855,4.102-14.256
	c3.419-6.821,7.205-13.694,16.503-13.594c4.44,6.758,11.626,8.389,18.792,10.009c2.597,0.587,5.114,1.065,7.326,2.851
	c2.601,2.098,5.449,3.521,9.191,2.657c2.5-0.577,5.033,0.724,6.645,2.76c2.174,2.746,4.662,2.869,7.501,1.559
	c3.679-1.7,6.466-0.874,8.311,2.763c2.406,4.742,5.153,9.27,7.266,14.227c2.317,5.436,3.783,13.248,11.808,15.901
	c6.649,2.199,11.82,7.396,16.419,12.752c2.113,2.46,4.341,3.553,7.724,3.352c7.41-0.439,14.61,0.822,21.333,4.194
	c-0.333,5.14-4.359,8.077-7.264,11.52c-4.762,5.645-21.257,6.563-26.777,1.607c-4.503-4.043-9.876-4.509-15.38-4.574
	c-2.452-0.029-4.354,1.948-4.133,4.191c0.746,7.54,0.846,15.333,8.551,20.211c4.776,3.024,9.861,7.021,11.282,12.32
	c2.714,10.122,8.589,15.679,18.544,17.599c0.95,0.184,1.801,0.846,2.72,1.231c16.418,6.894,28.9,3.193,38.916-11.528
	c1.007-1.48,1.583-3.387,3.714-3.754c3.51,4.074,4.485,9.219,5.806,14.165c4.127,15.46,6.903,31.205,9.674,46.95
	c0.39,2.218,0.225,4.291-0.459,6.384c-1.707,5.222-3.38,10.454-5.113,15.667c-1.044,3.142-1.939,6.109-1.249,9.659
	c1.033,5.308-1.597,9.694-5.23,13.422c-14.167,14.534-36.75,19.132-55.414,10.959c-8.02-3.512-10.832-10.871-12.033-18.909
	c-0.44-2.942-0.314-5.975-0.367-8.968c-0.113-6.46-2.426-11.486-8.631-14.355c-6.865-3.175-13.625-6.575-21.636-10.462
	c2.51,8.395,4.191,15.676,6.881,22.562c2.863,7.329,1.212,14.836,2.057,22.222c4.012,35.092,10.839,69.748,15.906,104.671
	c3.941,27.164,6.467,54.522,11.505,81.542c4.059,21.768,7.419,43.668,11.663,65.397c1.454,7.442,1.255,13.42-5.839,17.65
	c-0.794,0.474-1.253,1.51-1.868,2.286c-7.846,6.012-15.771,11.938-21.884,19.858c-2.453,1.396-4.906,2.79-7.359,4.185
	C332.264,628.429,324.758,631.808,317.252,635.187z"/>
<path fill-rule="evenodd" clip-rule="evenodd" fill="#B4AA97" d="M0.998,277.441c-1.861-3.485-0.836-6.783,0.761-9.975
	c1.584-3.166,3.838-5.949,6.589-8.065c7.597-5.845,13.297-13.408,19.41-20.613c5.587-6.586,11.253-12.934,18.996-17.338
	c13-7.394,20.826-20.339,31.325-30.44c1.367-1.315,1.176-3.029,1.374-4.649c0.993-8.101,3.517-15.57,9.147-21.692
	c2.586-2.812,5.247-5.334,9.502-5.791c3.183-0.343,5.425-2.108,2.796-5.793c-1.077-1.509-1.046-3.073,0.108-4.614
	c0.664-0.886,1.845-1.886,0.748-3.035c-1.929-2.02-0.331-3.301,0.778-4.67c2.301-2.84,4.667-5.628,7.006-8.438
	c2.769,1.2,3.708,3.966,4.15,6.349c1.166,6.279,5.457,10.314,9.424,14.636c1.22,1.329,2.638,2.467,3.356,4.186
	c-2.494,2.99-2.999,6.626-3.21,10.305c-0.308,5.329-0.111,10.652,0.359,15.977c1.1,12.468,4.381,24.65,5.528,37.041
	c4.669,50.427,8.804,100.903,12.955,151.377c1.76,21.405,1.465,42.917,3.622,64.333c3.73,37.037,4.456,74.165,0.805,111.284
	c-0.924,9.388-2.065,18.753-3.106,28.128c-1.828,11.833-4.302,23.575-4.968,35.57c-2.013,3.022-1.931,6.645-2.778,9.992
	c-0.573,2.262-1.048,3.4-3.918,2.619c-12.82-3.489-25.9-5.826-38.974-8.138c-3.317-0.586-6.297-2.04-9.446-3.053
	c-4.575-5.043-8.666-10.413-11.872-16.468c-1.245-2.35-3.237-4.398-5.788-5.294c-3.801-1.334-6.46-3.939-8.953-6.864
	c-1.317-3.059-0.981-5.968,0.086-9.128c2.853-8.442,6.54-16.609,8.496-25.352c2.221-3.787,3.43-7.94,4.404-12.178
	c4.684-10.494,7.73-21.584,11.756-32.317c1.046-2.789,2.275-5.536,2.375-8.621c0.97-29.833,5.438-59.317,9.033-88.881
	c3.194-26.267,6.764-52.488,10.365-78.703c0.601-4.374-0.279-4.652-4.209-3.281c-8.319,2.902-16.852,5.186-25.274,7.798
	c-1.837,0.57-3.534,0.847-5.254-0.25c-6.582-4.197-12.738-8.71-13.321-17.476c-0.083-1.253-0.558-2.247-1.781-2.761
	c-1.041-1.103-2.082-2.205-3.123-3.308c-4.805-4.832-9.395-9.903-15.184-13.642c-2.195-2.526-4.162-5.355-7.845-5.905
	c-4.363-6.786-11.488-9.915-18.122-13.7C6.194,274.928,3.498,275.129,0.998,277.441z"/>
<path fill-rule="evenodd" clip-rule="evenodd" fill="#8C9473" d="M126.469,157.497c-0.719-1.719-2.136-2.856-3.356-4.186
	c-3.967-4.321-8.259-8.356-9.424-14.636c-0.442-2.383-1.381-5.148-4.15-6.349c-0.798-4.819-4.348-6.632-8.34-5.623
	c-9.662,2.441-18.45-0.416-27.35-3.247c-11.578-3.682-22.862-8.288-34.749-11c-6.561-1.497-13.158-2.05-19.817-0.788
	c-1.502,0.285-2.994,0.822-3.996-0.855c-0.925-1.548-0.198-2.91,0.719-4.145c3.251-4.377,7.572-7.416,12.377-9.866
	c7.671-3.912,15.896-6.584,24.354-6.952c11.428-0.496,21.249-4.951,31.054-9.933c4.749-2.413,9.372-5.093,14.208-7.308
	c2.955-1.353,2.833-3.828,3.14-6.235c1.613-12.682,3.897-25.533,12.022-35.568c18.987-23.449,49.337-41.255,83.086-23.765
	c2.358,1.222,4.87,2.16,7.35,3.129c15.833,6.188,27.361,16.848,33.681,32.75c1.7,4.278,4.628,5.351,8.899,5.429
	c11.628,0.212,22.816-1.236,33.678-5.811c9.192-3.871,18.658-7.108,28.333-9.717c8.35-2.251,14.66,0.607,19.887,6.898
	c2.3,2.769,1.332,5.813-2.069,5.375c-14.327-1.849-17.789,9.639-22.177,18.611c-6.27,12.821-14.676,23.216-26.628,30.88
	c-2.069,1.327-4.839,1.449-6.328,3.732c-9.299-0.101-13.084,6.772-16.503,13.594c-2.207,4.4-3.433,9.301-4.103,14.256
	c-4.235,5.119-8.396,10.303-12.722,15.345c-10.832,12.625-21.984,24.946-35.428,34.916c-5.776,4.283-11.838,8.388-19.273,8.592
	c-3.94,0.108-5.723,1.079-5.904,5.105c-0.067,1.494-0.059,3.883-1.773,4.322c-1.792,0.459-2.686-1.728-3.438-3.048
	c-3.364-5.904-8.345-9.255-14.708-11.688c-10.548-4.034-19.219-11.084-26.71-19.535C129.25,158.984,128.569,157.213,126.469,157.497
	z"/>
<path fill-rule="evenodd" clip-rule="evenodd" fill="#362720" d="M126.469,157.497c2.1-0.283,2.781,1.487,3.84,2.681
	c7.491,8.451,16.162,15.501,26.71,19.535c6.363,2.434,11.345,5.784,14.708,11.688c0.752,1.32,1.647,3.507,3.438,3.048
	c1.714-0.439,1.707-2.828,1.773-4.322c0.182-4.026,1.964-4.997,5.904-5.105c7.435-0.204,13.497-4.309,19.273-8.592
	c13.444-9.97,24.596-22.291,35.428-34.916c4.326-5.042,8.486-10.226,12.722-15.345c0.545,7.626-3.102,13.865-6.992,19.854
	c-6.794,10.464-14.431,20.377-20.181,31.518c-10.294,19.946-15.105,41.516-18.853,63.396c-9.973,58.233-10.829,116.925-9.23,175.789
	c1.288,47.44,2.28,94.894,2.226,142.359c-0.003,2.659-0.129,5.319-0.198,7.978c-1.793,0.197-3.587,0.396-5.381,0.596
	c-3.267,0.405-6.561,0.662-9.797,1.241c-12.822,2.293-25.627,4.687-38.438,7.042c1.041-9.375,2.182-18.74,3.106-28.128
	c3.651-37.119,2.925-74.247-0.805-111.284c-2.157-21.416-1.862-42.928-3.622-64.333c-4.15-50.474-8.286-100.95-12.955-151.377
	c-1.147-12.391-4.429-24.573-5.528-37.041c-0.47-5.324-0.667-10.647-0.359-15.977C123.471,164.123,123.976,160.487,126.469,157.497z
	"/>
<path fill-rule="evenodd" clip-rule="evenodd" fill="#8C9473" d="M423.36,220.166c-2.131,0.367-2.707,2.273-3.714,3.754
	c-10.015,14.722-22.497,18.422-38.916,11.528c-0.919-0.386-1.77-1.048-2.72-1.231c-9.955-1.92-15.831-7.477-18.544-17.599
	c-1.421-5.3-6.506-9.296-11.282-12.32c-7.706-4.878-7.805-12.671-8.551-20.211c-0.222-2.243,1.681-4.221,4.133-4.191
	c5.504,0.065,10.877,0.531,15.38,4.574c5.521,4.956,22.016,4.037,26.777-1.607c2.904-3.442,6.931-6.38,7.264-11.52
	c3.375-3.425,5.265-7.946,8.798-11.347c3.361-3.236,7.267-5.244,11.422-6.866c4.419-1.725,7.636,1.11,8.043,5.979
	c0.528,6.329-1.494,11.636-5.95,15.774c-4.642,4.312-3.069,9.195-1.809,13.864c1.263,4.682,5.245,6.8,9.876,7.136
	c2.961,0.215,6.01-0.027,8.953-0.49c4.246-0.667,7.474,0.927,10.271,3.836c3.666,3.812,5.675,8.634,7.363,13.458
	c1.419,4.057-0.45,7.992-3.962,9.918c-2.947,1.616-6.714-0.498-8.95-2.226C432.319,216.575,427.992,218.493,423.36,220.166z"/>
<path fill-rule="evenodd" clip-rule="evenodd" fill="#20140A" d="M50.278,309.849c1.041,1.103,2.082,2.205,3.123,3.307
	c-0.373,16.146-1.396,32.38,1.862,48.318c4.128,20.194,5.58,40.552,5.038,61.076c-0.209,7.911,0.801,15.638,2.476,23.272
	c0.901,4.109,1.294,8.177,1.475,12.344c0.98,22.613,1.971,45.227,3.191,67.827c0.211,3.911,0.19,8.033,2.269,11.655
	c-0.974,4.237-2.184,8.391-4.404,12.178c-3.799-16.012-7.656-32.011-11.379-48.04c-2.745-11.818-5.204-23.668-6.828-35.736
	c-1.235-9.176-4.419-18.07-6.346-27.173c-4.09-19.325-5.533-38.568-1.348-58.308c3.764-17.749,4.339-35.959,1.771-54.079
	c-0.535-3.774-1.354-7.54-3.269-10.938C41.892,313.35,45.823,311.03,50.278,309.849z"/>
<path fill-rule="evenodd" clip-rule="evenodd" fill="#8C9473" d="M143.422,575.941c12.811-2.355,25.616-4.749,38.438-7.042
	c3.236-0.579,6.53-0.836,9.797-1.241c1.265,8.916-0.582,10.555-8.152,15.369c-10.237,6.511-23.329,6.758-32.354,15.691
	c-2.678,2.65-6.104,4.418-7.641,8.251c-0.854,2.132-2.706,3.766-5.056,4.542C139.12,599.516,141.594,587.774,143.422,575.941z"/>
<path fill-rule="evenodd" clip-rule="evenodd" fill="#8C9473" d="M0.998,277.441c2.5-2.312,5.196-2.513,8.129-0.839
	c6.634,3.785,13.759,6.914,18.122,13.7c-0.368,0.53-0.736,1.062-1.104,1.592c-5.846,2.058-1.161,3.63,0.246,5.354
	c0.178,0.301,0.355,0.601,0.533,0.901c0.514,2.423,1.119,4.831,1.512,7.273c0.278,1.729,1.59,3.812-1.254,4.862
	c-0.454,0.167-0.864,1.056-0.905,1.638c-0.252,3.572-0.995,4.287-3.97,2.419c-9.406-5.906-17.132-13.442-20.951-24.198
	c-0.833-2.345-0.358-4.955,0.119-7.399C1.838,280.891,1.88,279.144,0.998,277.441z"/>
<path fill-rule="evenodd" clip-rule="evenodd" fill="#8C9473" d="M347.128,620.867c6.114-7.921,14.038-13.847,21.884-19.858
	c4.003,4.573,7.992,9.131,12.421,13.34c3.108,2.954,2.411,10.859-0.487,13.89c-2.603,2.723-10.577,3.57-13.428,0.523
	C361.853,622.71,354.524,621.919,347.128,620.867z"/>
<path fill-rule="evenodd" clip-rule="evenodd" fill="#8C9473" d="M56.725,584.306c2.493,2.925,5.152,5.53,8.953,6.864
	c2.551,0.896,4.543,2.944,5.788,5.294c3.206,6.055,7.296,11.425,11.872,16.468c-2.466,0.291-4.927,0.648-7.4,0.86
	c-5.961,0.512-9.521-1.954-10.781-7.809c-0.527-2.45-1.356-3.75-4.082-3.992c-5.944-0.529-8.32-5.67-9.979-10.006
	C49.822,588.657,53.076,585.632,56.725,584.306z"/>
<path fill-rule="evenodd" clip-rule="evenodd" fill="#8C9473" d="M50.278,309.849c-4.456,1.181-8.386,3.501-12.369,5.704
	c-0.627,0.201-1.281,0.349-1.882,0.616c-2.134,0.951-4.535,2.369-6.49,0.466c-1.797-1.75,0.431-3.676,0.978-5.457
	c0.903-2.942,0.806-5.899,0.705-8.888c0.359-2.621,1.921-4.477,3.874-6.083C40.883,299.946,45.473,305.017,50.278,309.849z"/>
<path fill-rule="evenodd" clip-rule="evenodd" fill="#8C9473" d="M317.252,635.187c7.505-3.379,15.011-6.758,22.517-10.136
	c-0.797,8.487-4.712,13.792-11.553,15.656C322.799,642.184,319.515,640.53,317.252,635.187z"/>
<path fill-rule="evenodd" clip-rule="evenodd" fill="#20140A" d="M35.094,296.208c-1.952,1.606-3.514,3.462-3.874,6.083
	c-1.431-1.379-2.863-2.758-4.295-4.14c-0.179-0.303-0.356-0.603-0.535-0.904c-0.083-1.785-0.164-3.569-0.245-5.353
	c0.368-0.53,0.736-1.062,1.104-1.592C30.933,290.852,32.899,293.681,35.094,296.208z"/>
<path fill-rule="evenodd" clip-rule="evenodd" fill="#425706" d="M26.145,291.894c0.081,1.783,0.163,3.567,0.245,5.353
	C24.984,295.524,20.299,293.952,26.145,291.894z"/>
</svg>
